<svg xmlns="http://www.w3.org/2000/svg" width="80" height="67" viewBox="0 0 80 67" fill="none">
  <path d="M30.5965 1.09745C30.0359 1.22947 28.558 1.79058 27.284 2.35168C21.899 4.69512 19.1131 5.07469 16.5821 3.83696C16.0045 3.55641 15.4099 3.32537 15.274 3.32537C14.8494 3.32537 14 4.23304 14 4.67862C14 5.17371 15.1212 7.10457 16.1064 8.3093C17.8561 10.4382 20.676 12.1545 23.258 12.6661C25.6192 13.1447 29.8321 12.6991 32.7878 11.6759C38.7843 9.59654 38.3936 9.69556 40.4151 9.69556C42.5045 9.67905 42.8952 9.77807 46.6154 11.1148C52.2721 13.1447 56.8417 13.4253 60.1372 11.9235C62.1077 11.0158 63.7385 9.76157 65.0635 8.09476C65.9978 6.92304 67 5.14071 67 4.66212C67 4.23304 66.1337 3.32537 65.743 3.32537C65.6071 3.32537 65.0125 3.55641 64.4519 3.83696C61.9208 5.0912 59.101 4.69512 53.716 2.35168C50.7093 1.04794 49.5881 0.78389 47.2949 0.899411C45.2224 0.99843 43.7615 1.3945 41.825 2.36819L40.5 3.02831L39.175 2.36819C37.1196 1.32849 35.7946 0.99843 33.5353 0.915915C32.1763 0.882909 31.276 0.932418 30.5965 1.09745ZM35.3189 3.73794C36.5929 4.0185 37.7311 4.51359 39.0731 5.33874C40.2452 6.04838 40.7038 6.11439 41.4343 5.61929C43.2519 4.43107 45.3753 3.67193 47.2949 3.53991C49.1125 3.42438 50.1827 3.67193 52.7647 4.82715C56.2471 6.37844 58.8292 7.10457 61.0375 7.17059L62.2266 7.20359L61.5301 7.89672C60.6298 8.78789 58.8971 9.67905 57.3853 10.0256C55.3468 10.4877 51.8305 10.1081 48.9087 9.10145C48.1612 8.8539 46.6494 8.3258 45.5622 7.94623C44.3391 7.53365 42.9631 7.18709 42.0288 7.07157C39.9055 6.82402 38.0029 7.07157 35.4378 7.94623C34.3506 8.3258 32.8388 8.8539 32.0913 9.10145C29.1696 10.1081 25.6532 10.4877 23.6147 10.0256C22.1029 9.67905 20.3702 8.78789 19.4699 7.89672L18.7734 7.20359L20.0644 7.17059C22.2558 7.10457 25.1096 6.26292 28.6769 4.64561C29.5093 4.28254 30.5795 3.86997 31.0551 3.73794C32.1933 3.44089 34.0449 3.44089 35.3189 3.73794Z" fill="#5C5C5C"/>
  <path d="M1.04491 1.20273C0.842293 1.28618 0.538362 1.55322 0.386397 1.78689C0.116236 2.18745 0.0824663 2.90514 0.0149262 8.34618C-0.153924 22.5163 1.11245 31.5624 3.67898 34.4665C4.13488 34.9672 4.35438 35.0841 4.84405 35.0841C5.16486 35.0841 5.58699 34.9672 5.75584 34.817C6.11042 34.4832 6.04288 34.3497 6.75206 36.8365C8.01843 41.3763 10.8045 47.4849 13.2359 51.1067C19.0612 59.769 26.5582 64.676 35.8281 65.8777C40.691 66.4952 46.1786 65.9444 50.67 64.3588C52.5274 63.7079 55.9213 61.9221 57.7111 60.6536C60.8855 58.4338 64.3807 54.7285 66.829 51.0233C69.2267 47.4015 71.8945 41.5432 73.1947 37.0201C73.9714 34.2996 73.887 34.4832 74.2415 34.817C74.4104 34.9672 74.8325 35.0841 75.1533 35.0841C75.643 35.0841 75.8625 34.9672 76.2846 34.4999C78.7667 31.6959 80.0331 23.4676 79.9993 10.2155C79.9825 3.35578 79.8811 2.00386 79.3915 1.51984C78.9525 1.06921 78.1251 1.03583 77.6692 1.43639C77.5004 1.5866 76.9938 2.67147 76.5548 3.83979C74.174 10.1487 70.7463 16.5244 67.3018 21.0475C65.6977 23.1672 62.5571 26.355 60.7673 27.6736C58.9606 29.0088 56.0395 30.4608 54.2328 30.9115C50.2479 31.8962 46.1111 31.2787 41.8898 29.0588C41.0287 28.6082 40.2013 28.241 40.0325 28.241C39.8805 28.241 38.7661 28.725 37.5504 29.3259C34.4604 30.8614 32.7044 31.2953 29.6144 31.2953C27.7064 31.312 26.9803 31.2286 25.8153 30.9282C23.9241 30.4441 21.0199 29.0088 19.2301 27.6736C17.4403 26.3383 14.2997 23.1505 12.6956 21.0475C9.23416 16.491 5.95846 10.4158 3.49324 3.95663C3.03735 2.75492 2.5308 1.67006 2.37883 1.51984C1.99048 1.13596 1.50081 1.03583 1.04491 1.20273ZM7.10664 17.6427C11.5643 25.0031 17.1026 30.4108 22.3876 32.5805C24.9541 33.632 26.6257 33.9658 29.4455 33.9658C32.9239 33.9658 35.2878 33.415 38.5635 31.8294L40.0662 31.0951L40.7585 31.4789C42.0587 32.2133 44.3213 33.0645 46.1617 33.5319C48.6438 34.1327 52.1222 34.1661 54.3847 33.6153C62.5571 31.6125 69.5982 24.6192 75.8287 12.3018L77.3484 9.29753L77.2471 14.1377C77.0951 22.1658 76.4366 27.7737 75.2884 30.8113L74.9169 31.7794L74.2753 31.1618C73.5493 30.4608 72.7557 30.3273 72.2322 30.8447C72.0127 31.0617 71.675 32.1132 71.236 33.8824C69.0072 42.7616 64.9379 50.3724 59.6866 55.5297C55.6342 59.502 51.0922 61.8887 45.537 62.9902C43.916 63.3074 43.0887 63.3741 39.9987 63.3741C36.9087 63.3741 36.0814 63.3074 34.4604 62.9902C30.56 62.2225 26.8621 60.6536 23.7891 58.5006C17.0013 53.7104 11.463 44.6142 8.76137 33.8824C8.32236 32.1132 7.98466 31.0617 7.76516 30.8447C7.24172 30.3273 6.44813 30.4608 5.72207 31.1618L5.08044 31.7794L4.70897 30.8113C3.57767 27.7904 2.90227 22.1991 2.7503 14.1377L2.64899 9.29753L4.32061 12.5521C5.2324 14.338 6.49878 16.6413 7.10664 17.6427Z" fill="#5C5C5C"/>
</svg>