<svg xmlns="http://www.w3.org/2000/svg" width="83" height="61" viewBox="0 0 83 61" fill="none">
  <path d="M52.7804 0.0582733C49.1251 0.343466 45.9403 1.3668 38.6478 4.62136C34.9382 6.28219 32.0611 7.3223 29.5639 7.90946C26.0714 8.74827 23.719 8.94958 15.4132 9.10056C7.10731 9.26832 5.80443 9.38576 3.85011 10.2413C0.231007 11.8183 -0.83663 15.4084 0.647204 20.8941C1.80532 25.172 3.25296 27.3529 5.62348 28.393C7.05302 29.0305 8.44638 29.1479 10.7988 28.8292C16.1551 28.0743 21.9999 26.145 39.9326 19.1997C44.4565 17.455 48.9804 15.7439 49.9756 15.3916C55.1691 13.5798 59.0777 13.3449 63.0768 14.5863C67.7093 16.0291 71.9255 19.0823 79.1276 26.2625C80.8647 27.9904 81.1723 28.2253 81.6971 28.2253C82.439 28.2253 83 27.722 83 27.0509C83 26.1282 79.6161 20.2902 76.7932 16.3981C72.2693 10.0903 67.2207 4.75557 63.8187 2.65856C60.5615 0.628658 56.8158 -0.243696 52.7804 0.0582733ZM56.1824 2.64178C57.5577 2.77599 59.9101 3.49736 61.2854 4.18518C63.6559 5.37628 65.7007 7.20487 69.6455 11.6841C72.776 15.2238 75.7075 18.9984 75.0922 18.6965C74.8932 18.5958 74.6218 18.3945 74.4951 18.2267C74.0608 17.757 71.7627 16.0794 70.1522 15.0561C68.1978 13.8146 65.0854 12.4222 63.0044 11.8351C61.5387 11.4324 61.0863 11.3821 58.3901 11.3821C53.649 11.3653 51.8757 11.8351 41.5612 15.811C31.5363 19.6695 23.4476 22.7227 20.9323 23.5783C16.8065 25.0043 12.6264 26.0444 9.89402 26.3631C6.13015 26.7993 4.42917 25.1552 3.27106 20.005C2.81867 17.9751 2.7101 15.811 3.01772 14.7876C3.5063 13.1939 4.91775 12.2712 7.36065 11.9693C8.10257 11.8854 11.034 11.7512 13.875 11.7008C24.28 11.4995 28.0438 11.1137 32.3868 9.85548C34.4135 9.25155 36.1868 8.54695 41.1088 6.36607C47.2251 3.66512 49.668 2.85987 52.69 2.5579C53.9386 2.44047 54.2824 2.45725 56.1824 2.64178Z" fill="#5C5C5C"/>
  <path d="M31.8906 36.1104C25.3482 36.5792 19.5669 37.8466 15.8154 39.6697C13.8763 40.6073 12.1908 41.7879 12.064 42.3088C11.8646 43.0206 12.1365 43.5762 12.807 43.854C13.5319 44.1318 13.7857 44.0624 14.9818 43.2116C18.1352 40.9719 23.9346 39.444 31.4557 38.871C35.334 38.5759 43.1995 38.7669 46.7697 39.2183C52.3154 39.9475 56.5562 41.0413 59.8908 42.6387C61.5944 43.4547 61.685 43.4721 62.1562 43.229C62.8811 42.8296 63.1892 42.1351 62.8811 41.5448C62.1562 40.1211 56.3025 37.9855 50.5756 37.0827C45.0661 36.2146 36.657 35.7805 31.8906 36.1104Z" fill="#5C5C5C"/>
  <path d="M65.1666 48.8066C57.2429 52.132 48.1794 53.7618 37.5783 53.7618C29.2566 53.7618 21.17 52.6588 12.2694 50.3212C10.587 49.8767 9.08544 49.5475 8.92263 49.5968C8.30754 49.7944 8 50.2059 8 50.7986C8 51.5229 8.30754 51.8192 9.51962 52.2308C10.388 52.5271 10.4242 52.5436 10.6412 53.4655C11.0031 54.8977 11.8895 56.3299 13.1378 57.4822C14.0966 58.3877 14.3498 58.5358 14.8926 58.5358C15.6343 58.5358 16.0865 58.1737 16.2494 57.4329C16.3398 57.0048 16.2313 56.8238 15.2544 55.9183C14.2594 54.9635 13.2644 53.5313 13.4815 53.3338C13.5177 53.2844 14.0966 53.3832 14.7659 53.5313L15.9599 53.7947L16.5931 54.8977C17.3529 56.2147 19.0896 58.009 20.5549 58.9803C21.9479 59.9187 22.7801 59.9351 23.3047 59.0132C23.7027 58.2889 23.4675 57.7786 22.364 57.1201C21.4957 56.5933 19.4876 54.766 19.6323 54.6343C19.7047 54.5849 23.3952 55.2105 23.4675 55.2763C23.4856 55.3092 23.6485 55.5562 23.7932 55.836C24.553 57.2024 27.7912 60.0174 28.8586 60.2808C29.8355 60.4948 30.7762 59.6388 30.5229 58.7498C30.4686 58.5523 29.8355 57.9761 29.0938 57.4658C28.352 56.9719 27.6284 56.3628 27.4475 56.1323L27.14 55.6879L28.1892 55.8031C31.0656 56.0994 30.7943 55.9842 31.6988 57.2518C32.5672 58.4864 34.4848 60.2314 35.5521 60.7418C36.0948 61.0216 36.2577 61.0381 36.728 60.857C37.3431 60.6265 37.7592 59.8857 37.5783 59.3754C37.524 59.1943 36.9632 58.6675 36.33 58.223C35.6969 57.7621 34.9732 57.1365 34.7019 56.8073L34.2134 56.2311H35.8235H37.4336L38.2657 57.1859C39.1884 58.256 41.0517 59.7211 42.517 60.4948C43.7291 61.1369 44.5613 61.1698 45.0678 60.5771C45.7915 59.7376 45.4477 59.112 43.7653 58.2395C43.0417 57.8773 42.1371 57.2847 41.7391 56.939L41.0155 56.3299L42.7884 56.1817L44.5613 56.0336L44.9412 56.511C45.8096 57.5646 48.3603 59.6553 49.5724 60.2973C51.4358 61.3015 52.485 61.2192 52.7926 60.0833C52.9735 59.4083 52.6117 58.9474 51.3453 58.3054C49.88 57.5646 47.8538 55.9019 48.1975 55.7372C48.3242 55.6714 48.9031 55.5562 49.4639 55.5068L50.5131 55.3915L51.8157 56.6097C53.281 57.9761 55.0358 59.0791 57.2971 60.0339C59.0158 60.7747 59.3414 60.8076 59.8841 60.3467C60.7163 59.6388 60.4811 58.5688 59.4138 58.1737C57.5504 57.4987 55.5423 56.4781 54.6921 55.7537C54.1494 55.2928 53.7514 54.8812 53.8056 54.8318C53.8599 54.7824 54.5474 54.6014 55.3253 54.4203L56.7363 54.124L57.7313 54.9471C59.1424 56.083 61.1505 57.2682 63.2671 58.2066C66.252 59.5236 67.1928 59.6388 67.8078 58.7828C68.2058 58.2395 67.9526 57.3835 67.3375 57.1201C61.6027 54.6014 59.667 53.5807 60.0288 53.2679C60.1193 53.2021 60.6258 53.021 61.1505 52.8564L62.1274 52.5765L62.8691 53.0539C65.239 54.5684 68.3506 55.622 71.9325 56.1488C73.5969 56.3957 74.0672 56.2805 74.3929 55.5562C74.8813 54.5026 74.23 53.8935 72.4029 53.6959C70.5395 53.4819 68.3867 52.9387 66.8671 52.2966C66.035 51.9345 65.3475 51.5888 65.3475 51.5065C65.3475 51.4406 65.7998 51.2101 66.3425 50.9961C67.247 50.6669 67.4098 50.6504 67.844 50.8644C70.4853 52.0991 76.7808 52.4777 77.6854 51.4571C78.1195 50.9797 78.1014 50.2883 77.6492 49.8438C77.3055 49.5145 77.1065 49.4816 74.7908 49.4981C72.0592 49.4981 70.3044 49.2017 68.6219 48.428C68.1154 48.1975 67.5727 48 67.3918 48C67.2108 48 66.2159 48.3622 65.1666 48.8066Z" fill="#5C5C5C"/>
</svg>