<svg xmlns="http://www.w3.org/2000/svg" width="70" height="81" viewBox="0 0 70 81" fill="none">
  <path d="M30.978 0.710396C18.8335 2.03984 9.13666 7.73299 4.25704 16.3822C2.10564 20.2141 0.983167 23.7801 0.281624 29.1136C0.0321863 30.9904 0.00100658 32.7891 0.00100658 47.2253C0.00100658 65.1649 -0.0769427 63.9763 1.13907 66.4631C1.98092 68.1992 3.89847 70.1073 5.6913 70.9832C7.81152 72.0155 8.37276 72.0937 15.092 72.0937H20.9694V75.4877C20.9694 77.3958 21.0473 79.1632 21.1408 79.4916C21.4215 80.5396 22.7154 80.8524 23.4637 80.0391C23.7599 79.7106 23.7755 79.5073 23.7755 75.8943C23.7755 73.7985 23.8223 72.0937 23.9003 72.0937C23.9626 72.0937 24.9915 72.7975 26.192 73.6577C29.0293 75.691 30.9313 76.8328 32.194 77.2707C33.6439 77.7868 36.3565 77.7868 37.8064 77.2707C39.0692 76.8328 40.9711 75.691 43.8085 73.6577C45.0089 72.7975 46.0378 72.0937 46.1002 72.0937C46.1626 72.0937 46.2249 73.8141 46.2561 75.9256C46.3029 79.648 46.3185 79.7575 46.6614 80.1016C47.1759 80.6334 48.1736 80.5865 48.6569 80.0234C49.0311 79.5855 49.0311 79.5698 49.0311 75.8318V72.0937H54.9241C61.6277 72.0937 62.1889 72.0155 64.3092 70.9832C66.0864 70.1073 68.0195 68.1992 68.8614 66.4631C70.0618 64.0388 69.9994 65.0085 69.9994 47.1471C69.9994 32.8047 69.9683 30.9904 69.7188 29.1136C69.3291 26.1731 69.0485 24.7499 68.4249 22.701C66.5541 16.5229 63.1555 11.5962 58.1512 7.77991C51.1981 2.50906 40.3631 -0.321877 30.978 0.710396ZM37.9779 3.43185C49.2338 4.54232 58.12 9.39088 62.8281 16.9452C64.9639 20.4018 66.3982 24.8281 66.9906 29.8643C67.3024 32.5545 67.2868 62.4435 66.975 63.5696C66.4138 65.5716 64.9483 67.4797 63.2802 68.3712C61.7836 69.1845 60.9729 69.2784 55.267 69.2784H50.0444L50.668 68.7779C55.9218 64.5237 58.7124 58.9087 59.7257 50.588C60.0219 48.1168 60.287 42.1577 60.1778 40.5781C59.7101 34.1498 57.1378 29.2856 52.1958 25.5162C48.6725 22.8417 41.6883 18.7595 40.6282 18.7595C39.911 18.7595 39.5213 19.2131 38.6794 21.0118C37.1984 24.1712 35.2653 27.0334 33.0515 29.3794C27.9536 34.7754 20.221 38.6543 12.317 39.796C10.415 40.0776 9.9941 40.3122 9.8382 41.188C9.6979 41.8919 10.0097 48.3201 10.2747 50.588C11.2881 58.9087 14.0786 64.5237 19.3324 68.7779L19.956 69.2784H14.7334C9.02753 69.2784 8.21686 69.1845 6.72023 68.3712C5.05212 67.4797 3.58667 65.5716 3.02544 63.5696C2.71364 62.4435 2.69805 32.5545 3.00985 29.8643C4.4597 17.5083 10.8048 9.48472 22.2633 5.52767C27.3612 3.76029 33.3165 2.97827 37.9779 3.43185ZM44.3697 23.7332C47.6592 25.6257 50.668 27.7528 52.2738 29.3012C54.6746 31.6004 56.3271 34.6503 57.0755 38.1538C57.3093 39.233 57.3561 40.1558 57.3561 43.0805C57.3249 52.4179 55.8283 58.4552 52.3829 63.0378C50.7927 65.1649 49.2961 66.4475 44.6192 69.685C43.0134 70.7955 40.9088 72.2501 39.9578 72.907C37.7129 74.4554 36.7463 74.8308 35.0002 74.8308C33.2542 74.8308 32.2876 74.4554 30.0427 72.907C29.0917 72.2501 26.987 70.7955 25.3813 69.685C20.7355 66.4787 19.2077 65.1649 17.6175 63.0378C15.1699 59.8002 13.6577 55.5773 13.0341 50.2439C12.8315 48.5547 12.5352 42.8459 12.6288 42.6739C12.6756 42.6113 13.0809 42.5175 13.533 42.4549C15.7468 42.1421 20.299 40.8283 22.8401 39.7335C24.5083 39.014 27.3612 37.4969 28.8266 36.5272C31.7264 34.6347 35.1561 31.4753 37.1204 28.9259C38.2429 27.4869 40.2228 24.3276 40.8308 23.0294L41.2829 22.0597L42.156 22.5133C42.6393 22.7479 43.637 23.2953 44.3697 23.7332Z" fill="#5C5C5C"/>
</svg>