<svg xmlns="http://www.w3.org/2000/svg" width="66" height="87" viewBox="0 0 66 87" fill="none">
  <path d="M34.6869 0.0944672C31.6041 0.570587 29.2447 1.30177 26.3342 2.69612C21.9425 4.78766 18.4981 7.3043 13.4003 12.0995C11.7642 13.6469 10.9548 14.2761 10.4898 14.4121C9.76645 14.5992 8.85368 14.4801 8.85368 14.191C8.85368 14.072 9.12923 13.5789 9.45645 13.0688C9.81812 12.4906 10.0592 11.9125 10.0592 11.5724C10.0592 10.8072 9.40478 10.178 8.61257 10.178C8.0959 10.178 7.87201 10.3311 6.97646 11.3173C4.59981 13.851 1.93037 18.4591 0.948712 21.6559C0.104827 24.4617 -0.0157279 25.2098 0.00149429 28.0326C0.0187164 30.3111 0.087605 30.9063 0.483714 32.3687C1.31038 35.4804 3.17037 38.6263 5.87424 41.466L7.07979 42.7413L7.18313 47.9276C7.25202 50.8694 7.40702 54.0662 7.56201 55.3245C8.7159 64.8809 11.437 70.3223 17.4131 75.0835L19.0147 76.3418V81.2731C19.0147 85.9323 19.032 86.2043 19.3592 86.5274C19.807 86.9695 20.4958 87.1226 21.0125 86.8845C21.8219 86.5274 21.9425 85.8472 21.9425 81.9363V78.3483L22.4592 78.6544C22.7519 78.8075 23.923 79.6237 25.0942 80.4399C27.8325 82.3954 29.6752 83.3816 31.3286 83.8067C32.913 84.2148 33.998 84.2318 35.5824 83.9088C37.4597 83.5007 38.8546 82.7185 43.7802 79.2836L45.3646 78.1613V81.9703C45.3646 86.0343 45.4335 86.3914 46.2429 86.8505C46.7768 87.1396 47.4657 87.0035 47.9479 86.4934C48.2752 86.1363 48.2924 85.9153 48.2924 81.1711V76.2058L49.6702 75.1685C54.7162 71.2916 57.6096 66.4623 58.9873 59.5756C59.6934 56.0557 59.8657 54.0662 59.9518 48.3017L60.0551 42.6393L61.1229 41.0579C66.634 32.9128 67.4778 24.6147 63.6373 16.5546C61.4845 12.0825 56.6451 6.65813 52.7874 4.41356C51.0651 3.3933 49.4807 2.9852 47.3452 2.96819C44.7618 2.95119 42.6091 3.54634 40.3185 4.90668C39.6985 5.28078 39.0958 5.58686 39.0096 5.58686C38.648 5.58686 38.3035 4.5496 38.1141 2.91718C37.8385 0.553581 37.8385 0.519569 37.2702 0.230499C36.8052 -0.00756073 35.703 -0.0755768 34.6869 0.0944672ZM35.2036 3.61436C35.2036 4.53259 35.858 6.35205 36.4608 7.13425C37.1497 8.03548 38.2863 8.64764 39.2508 8.64764C39.8191 8.64764 40.198 8.4946 40.8869 8.03548C42.2991 7.08324 44.1418 6.28403 45.6402 5.97796C49.0674 5.29778 51.754 6.57311 55.9562 10.8922C63.2584 18.3741 64.9979 27.0973 60.8818 35.5145L60.1068 37.1299L59.9862 34.0691C59.9001 31.5184 59.814 30.8383 59.504 29.9881C57.7129 25.1418 52.2879 22.7952 46.8457 24.5297C43.4702 25.6009 39.7158 26.026 33.5847 26.026C27.4708 26.009 24.2847 25.652 20.3408 24.5297C18.7392 24.0876 17.9814 23.9515 16.8964 23.9515C12.3842 23.9685 8.85367 26.4852 7.56201 30.5832C7.33813 31.2634 7.23479 32.4537 7.14868 35.0043L7.04535 38.4902L6.13258 37.2999C4.96147 35.7355 3.77314 33.3889 3.34259 31.6885C2.30926 27.7265 2.91204 23.7135 5.15091 19.2753C6.70091 16.2316 6.52869 16.4016 7.64813 16.9457C8.38868 17.3028 8.81923 17.3879 9.78367 17.3879C11.7126 17.3879 12.4875 16.9457 15.6048 14.038C20.3753 9.58288 23.1997 7.50835 27.2297 5.51884C29.8819 4.22652 33.3608 3.07022 34.7386 3.03621C35.1519 3.03621 35.2036 3.08723 35.2036 3.61436ZM19.3592 27.2844C23.4925 28.4917 27.2814 28.9338 33.6536 28.9338C40.0774 28.9338 43.5218 28.5427 47.7413 27.3184C49.2568 26.8763 49.739 26.8082 50.9274 26.8763C53.4418 27.0123 55.4912 28.3386 56.4901 30.4642L56.9896 31.5184V42.3162C56.9896 53.539 56.9379 54.5933 56.1973 58.4703C55.2157 63.6736 53.3729 67.5506 50.4624 70.5264C48.8607 72.1588 47.6896 73.077 43.5735 75.8827C41.6963 77.175 39.6813 78.5694 39.0958 78.9945C37.4769 80.1508 35.4619 81.069 34.2563 81.1881C32.9819 81.3241 31.3802 80.95 30.0369 80.2018C29.5202 79.9297 28.0908 78.9775 26.8508 78.1273C25.628 77.2601 23.4925 75.7977 22.1319 74.8625C16.397 70.9855 13.7792 67.8057 12.057 62.6874C10.4037 57.7901 9.99034 53.0799 10.0937 40.2757C10.1626 32.4537 10.1798 31.9776 10.5242 31.0423C11.7987 27.5394 15.2431 26.0771 19.3592 27.2844Z" fill="#5C5C5C"/>
</svg>