<svg width="30" height="30" viewBox="0 0 30 30" fill="none" xmlns="http://www.w3.org/2000/svg">
<g clip-path="url(#clip0_47_30)">
<path fill-rule="evenodd" clip-rule="evenodd" d="M29.662 0.337954C30.1127 0.788559 30.1127 1.51913 29.662 1.96974L1.96974 29.662C1.51913 30.1127 0.788559 30.1127 0.337954 29.662C-0.112651 29.2114 -0.112651 28.4809 0.337954 28.0303L28.0303 0.337954C28.4809 -0.112651 29.2114 -0.112651 29.662 0.337954Z" fill="#51B8C1"/>
<path fill-rule="evenodd" clip-rule="evenodd" d="M0.337954 0.337954C0.788559 -0.112651 1.51913 -0.112651 1.96974 0.337954L29.662 28.0303C30.1127 28.4809 30.1127 29.2114 29.662 29.662C29.2114 30.1127 28.4809 30.1127 28.0303 29.662L0.337954 1.96974C-0.112651 1.51913 -0.112651 0.788559 0.337954 0.337954Z" fill="#51B8C1"/>
</g>
<defs>
<clipPath id="clip0_47_30">
<rect width="30" height="30" fill="white"/>
</clipPath>
</defs>
</svg>
