<svg width="18" height="18" viewBox="0 0 18 18" fill="none" xmlns="http://www.w3.org/2000/svg">
<path d="M8.65388 5.34853H8.65373C7.92006 5.34853 7.20268 5.5624 6.59231 5.96335C5.98191 6.36431 5.50581 6.93444 5.22458 7.60191C4.94334 8.2694 4.86972 9.00403 5.01312 9.71279C5.15653 10.4215 5.51044 11.0722 6.02973 11.5828C6.54901 12.0933 7.21034 12.4407 7.92997 12.5814C8.64959 12.7221 9.39553 12.6499 10.0735 12.3738C10.7516 12.0977 11.3314 11.63 11.7396 11.0295C12.1477 10.429 12.3657 9.7227 12.3657 9V8.99985C12.3646 8.03107 11.9726 7.10274 11.2765 6.4184C10.5805 5.73414 9.63727 5.34963 8.65388 5.34853ZM12.5599 0.868534H12.5598L4.74767 0.868534L4.74753 0.868535C3.59154 0.869844 2.48285 1.32185 1.66477 2.12609C0.846622 2.9304 0.385982 4.02139 0.384648 5.15985V5.16L0.384648 12.84L0.384648 12.8402C0.385982 13.9786 0.846622 15.0696 1.66477 15.8739C2.48285 16.6782 3.59154 17.1302 4.74753 17.1315H4.74767H12.5598H12.5599C13.7159 17.1302 14.8246 16.6782 15.6427 15.8739C16.4608 15.0696 16.9215 13.9786 16.9228 12.8402V12.84V5.16V5.15985C16.9215 4.02139 16.4608 2.9304 15.6427 2.12609C14.8246 1.32185 13.7159 0.869844 12.5599 0.868534ZM12.4514 4.19798L12.5236 4.30786L12.4514 4.19798C12.3228 4.28248 12.2222 4.40282 12.1627 4.54404C12.1032 4.68528 12.0876 4.84083 12.1179 4.99093C12.1483 5.14101 12.2232 5.27856 12.3328 5.3863C12.4424 5.49402 12.5817 5.56713 12.7331 5.59672C12.8844 5.62632 13.0413 5.61115 13.184 5.55304C13.3267 5.49492 13.4491 5.39636 13.5353 5.26946C13.6216 5.14254 13.6678 4.99308 13.6678 4.84C13.6678 4.63466 13.5848 4.4382 13.4378 4.2937C13.2909 4.14928 13.0921 4.06853 12.8853 4.06853C12.731 4.06853 12.58 4.1135 12.4514 4.19798ZM8.65373 11.7485C8.09983 11.7485 7.55855 11.5871 7.09834 11.2848C6.63816 10.9825 6.27984 10.5531 6.06834 10.0511C5.85685 9.54913 5.80155 8.99693 5.90933 8.46421C6.01712 7.93148 6.28324 7.44182 6.6744 7.05728C7.06557 6.67272 7.56423 6.41058 8.10744 6.30436C8.65065 6.19814 9.21368 6.25267 9.72524 6.46098C10.2368 6.66929 10.6736 7.02189 10.9808 7.47386C11.288 7.9258 11.4518 8.4569 11.4518 9C11.4518 9.72823 11.1576 10.4271 10.6331 10.9427C10.1085 11.4584 9.39654 11.7485 8.65373 11.7485ZM16.0089 12.8398C16.0078 13.7375 15.6447 14.5986 14.9983 15.2341C14.3518 15.8696 13.4748 16.2275 12.5596 16.2285H4.74782C3.83263 16.2275 2.95566 15.8696 2.3092 15.2341C1.66283 14.5987 1.29965 13.7376 1.29859 12.84V5.16005C1.29965 4.26239 1.66283 3.40134 2.3092 2.7659C2.95564 2.13039 3.83256 1.77251 4.74772 1.77147H12.5597C13.4749 1.77251 14.3518 2.13039 14.9983 2.7659C15.6447 3.40136 16.0078 4.26246 16.0089 5.16015V12.8398Z" fill="white" stroke="white" stroke-width="0.262931"/>
</svg>
