<svg width="18" height="17" viewBox="0 0 18 17" fill="none" xmlns="http://www.w3.org/2000/svg">
<path d="M10.0046 4.22444C9.82488 3.30303 9.7633 2.13624 9.70961 0.526141C11.2614 0.528207 12.555 0.54517 13.615 0.679544C14.7957 0.829219 15.5906 1.11494 16.1039 1.60146C16.5948 2.10224 16.8856 2.90487 17.0381 4.08157C17.1739 5.12928 17.1917 6.39291 17.194 7.8657C15.5511 7.81061 14.3594 7.75025 13.4177 7.57336C12.4049 7.3831 11.7195 7.06408 11.1101 6.48566C10.5221 5.88697 10.198 5.21547 10.0046 4.22444ZM4.73019 7.57336C3.78853 7.75025 2.59677 7.81061 0.953917 7.8657C0.956183 6.39291 0.97401 5.12928 1.10981 4.08157C1.26232 2.90488 1.55309 2.10225 2.04398 1.60146C2.55722 1.11506 3.35345 0.82926 4.53516 0.679549C5.59567 0.545193 6.88915 0.528213 8.43829 0.526141C8.38461 2.13624 8.32302 3.30303 8.14327 4.22444C7.94993 5.21547 7.62578 5.88697 7.03776 6.48567C6.42841 7.06408 5.74301 7.3831 4.73019 7.57336ZM8.14088 12.7752C8.32004 13.6969 8.38151 14.8637 8.43746 16.4739C6.88606 16.4718 5.59268 16.4548 4.53289 16.3205C3.3522 16.1708 2.55733 15.8851 2.04398 15.3985C1.55309 14.8978 1.26232 14.0951 1.10981 12.9184C0.973985 11.8705 0.956176 10.6066 0.953916 9.1335C2.59666 9.18634 3.7885 9.24682 4.72984 9.4243C5.74232 9.6152 6.42804 9.93557 7.03776 10.5143C7.62541 11.1127 7.94819 11.7838 8.14088 12.7752ZM13.4177 9.42664C14.3594 9.24975 15.5511 9.18939 17.194 9.1343C17.1917 10.6071 17.1739 11.8707 17.0381 12.9184C16.8856 14.0951 16.5948 14.8978 16.1039 15.3985C15.5906 15.8851 14.7957 16.1708 13.615 16.3205C12.555 16.4548 11.2614 16.4718 9.70961 16.4739C9.7633 14.8638 9.82488 13.697 10.0046 12.7756C10.198 11.7845 10.5221 11.113 11.1101 10.5143C11.7195 9.93593 12.4049 9.61691 13.4177 9.42664Z" stroke="white" stroke-width="1.05172"/>
</svg>
