<svg width="23" height="18" viewBox="0 0 23 18" fill="none" xmlns="http://www.w3.org/2000/svg">
<path d="M9.8042 12.4539L9.80417 12.4539C9.72863 12.4149 9.66512 12.3567 9.6207 12.2851C9.57626 12.2135 9.5527 12.1314 9.55281 12.0475M9.8042 12.4539L9.63169 5.95239M9.8042 12.4539C9.87978 12.4929 9.96473 12.5113 10.05 12.5073M9.8042 12.4539L10.05 12.5073M9.55281 12.0475L9.63169 12.0476H9.55281V12.0475ZM9.55281 12.0475V5.95244M9.55281 5.95244L9.63169 5.95239M9.55281 5.95244V5.95239H9.63169M9.55281 5.95244C9.55275 5.86856 9.57636 5.78644 9.62084 5.71487C9.6653 5.64333 9.72885 5.58514 9.80441 5.54618C9.87995 5.50723 9.96484 5.48887 10.0501 5.49284L9.63169 5.95239M20.9739 3.71716C20.9279 3.54161 20.8393 3.37908 20.7154 3.24298C20.5914 3.10687 20.4356 3.00107 20.2609 2.9343C17.0872 1.75314 11.7587 1.76168 11.6122 1.76192L11.6096 1.76192L11.6071 1.76192L20.9739 3.71716ZM20.9739 3.71716C21.2152 4.60287 21.499 6.2381 21.499 9C21.499 11.7619 21.2152 13.3971 20.9769 14.2828L20.9739 3.71716ZM10.05 12.5073C10.1353 12.5033 10.218 12.477 10.2894 12.4311L10.05 12.5073ZM21.8182 3.50516C21.7375 3.2005 21.5829 2.9189 21.3673 2.68346C21.1515 2.44767 20.8808 2.26493 20.5776 2.15006L20.5772 2.1499C18.8954 1.52411 16.7077 1.21751 14.9169 1.06689C13.1683 0.919825 11.7913 0.920989 11.6202 0.921133C11.6159 0.921137 11.6123 0.92114 11.6096 0.92114C11.6068 0.92114 11.6033 0.921137 11.599 0.921133C11.4278 0.920989 10.0509 0.919825 8.30223 1.06689C6.51148 1.21751 4.32376 1.52411 2.64199 2.1499L2.64199 2.1499L2.64156 2.15006C2.33852 2.26483 2.06786 2.44742 1.85202 2.68303C1.63622 2.91859 1.48142 3.20041 1.40063 3.50534C1.14724 4.44212 0.850076 6.15304 0.850076 9C0.850076 11.847 1.14724 13.5579 1.40063 14.4947C1.48142 14.7996 1.63622 15.0814 1.85202 15.317C2.06786 15.5526 2.33852 15.7352 2.64156 15.8499L2.64199 15.8501C4.32376 16.4759 6.51148 16.7825 8.30223 16.9331C10.0508 17.0802 11.4278 17.079 11.599 17.0789C11.6033 17.0789 11.6068 17.0789 11.6096 17.0789H11.6798C12.0218 17.0789 13.448 17.0686 15.187 16.9102C16.9245 16.7519 18.9808 16.4453 20.5801 15.8501L20.5806 15.8499C20.8836 15.7352 21.1543 15.5526 21.3701 15.317C21.5859 15.0814 21.7407 14.7996 21.8215 14.4946C22.0719 13.5571 22.3691 11.8472 22.3691 9C22.3691 6.15282 22.0719 4.44186 21.8185 3.50513L21.8182 3.50516ZM2.98313 3.00811C4.57303 2.41693 6.71327 2.12447 8.46822 1.9803C10.1924 1.83865 11.5371 1.84069 11.6071 1.8408L11.6096 1.8408L11.6121 1.8408C11.6836 1.84068 13.027 1.8385 14.7495 1.97994C16.5036 2.12399 18.6431 2.41645 20.233 3.00809C20.3963 3.07054 20.5416 3.16933 20.657 3.29609C20.7726 3.42291 20.8549 3.57411 20.8976 3.73714L20.8978 3.73789C21.1368 4.61525 21.4202 6.24324 21.4202 9C21.4202 11.7567 21.1368 13.3848 20.9007 14.2623L20.898 14.2724V14.2782C20.8546 14.4376 20.7732 14.5853 20.66 14.7096C20.5446 14.8364 20.3993 14.9351 20.2361 14.9976C18.6462 15.5859 16.5059 15.877 14.751 16.0204C13.0268 16.1613 11.6822 16.1593 11.612 16.1592L11.6096 16.1592L11.6071 16.1592C11.5371 16.1593 10.1932 16.1613 8.46971 16.0197C6.71549 15.8755 4.57596 15.5831 2.98605 14.9919C2.82279 14.9294 2.67754 14.8306 2.56211 14.7039C2.4466 14.5771 2.36424 14.4259 2.32155 14.2629L2.32135 14.2621C2.08232 13.3847 1.79899 11.7568 1.79899 9C1.79899 6.24329 2.08231 4.61519 2.31845 3.73765L2.31858 3.73714C2.36127 3.57411 2.44363 3.42291 2.55914 3.29609C2.67459 3.16934 2.81985 3.07056 2.98313 3.00811ZM15.0363 8.61645L10.2894 5.56888L15.0364 9.38352C15.1014 9.34185 15.155 9.28515 15.1922 9.21824C15.2295 9.15129 15.2491 9.07631 15.2491 9C15.2491 8.92369 15.2295 8.84871 15.1922 8.78176C15.155 8.71483 15.1013 8.65812 15.0363 8.61645ZM10.2895 12.4311L15.0363 9.38355L10.2895 12.4311ZM10.5017 11.1918V6.8082L13.9152 9L10.5017 11.1918Z" fill="white" stroke="white" stroke-width="0.157759"/>
</svg>
