<svg width="25" height="25" viewBox="0 0 25 25" fill="none" xmlns="http://www.w3.org/2000/svg">
<rect width="25" height="25" rx="12.5" fill="#82C151"/>
<path d="M16.8173 13.8699L14.4642 12.6934C14.3947 12.6588 14.3173 12.6432 14.2398 12.6481C14.1623 12.653 14.0875 12.6783 14.023 12.7213L12.8699 13.4897C12.2862 13.1909 11.8113 12.716 11.5124 12.1324L12.2816 10.9801C12.3247 10.9156 12.3499 10.8408 12.3548 10.7633C12.3598 10.6859 12.3441 10.6085 12.3096 10.539L11.133 8.18603C11.0964 8.11242 11.04 8.05048 10.9701 8.00722C10.9002 7.96396 10.8196 7.94108 10.7374 7.94118C9.99626 7.94118 9.28551 8.23556 8.76146 8.75956C8.23742 9.28355 7.94301 9.99425 7.94301 10.7353C7.94496 12.4118 8.61187 14.0191 9.79744 15.2046C10.983 16.39 12.5904 17.0569 14.2671 17.0588C15.0082 17.0588 15.719 16.7644 16.243 16.2404C16.7671 15.7164 17.0615 15.0058 17.0615 14.2647C17.0615 14.1827 17.0387 14.1023 16.9955 14.0326C16.9524 13.9628 16.8907 13.9065 16.8173 13.8699ZM14.2671 16.1765C12.8244 16.1747 11.4413 15.6009 10.4212 14.5809C9.40107 13.5608 8.82719 12.1778 8.82544 10.7353C8.82548 10.2739 8.99241 9.82808 9.29542 9.48009C9.59842 9.13211 10.0171 8.90544 10.4741 8.84191L11.4051 10.7037L10.641 11.8493C10.6009 11.9097 10.5763 11.9791 10.5693 12.0513C10.5624 12.1235 10.5734 12.1963 10.6013 12.2632C11.0071 13.2278 11.7744 13.9951 12.739 14.4007C12.806 14.4287 12.8788 14.4396 12.951 14.4327C13.0232 14.4258 13.0926 14.4012 13.153 14.361L14.2987 13.5971L16.1606 14.5279C16.0971 14.9849 15.8704 15.4036 15.5224 15.7065C15.1744 16.0095 14.7285 16.1764 14.2671 16.1765ZM12.5022 5C11.202 4.99973 9.92396 5.33745 8.79359 5.98003C7.66323 6.62261 6.71934 7.54797 6.05452 8.66534C5.38971 9.7827 5.02681 11.0537 5.00143 12.3536C4.97605 13.6535 5.28905 14.9377 5.90974 16.0801L5.05526 18.6441C4.99476 18.8255 4.98598 19.0201 5.0299 19.2062C5.07382 19.3923 5.1687 19.5625 5.30391 19.6977C5.43912 19.8329 5.60932 19.9278 5.79542 19.9717C5.98153 20.0156 6.17618 20.0068 6.35758 19.9463L8.92177 19.0919C9.92553 19.6366 11.0404 19.9449 12.1814 19.9933C13.3224 20.0417 14.4594 19.8289 15.5057 19.3712C16.552 18.9135 17.4799 18.223 18.2188 17.3522C18.9576 16.4815 19.4878 15.4535 19.7691 14.3468C20.0503 13.24 20.075 12.0836 19.8414 10.9658C19.6078 9.84807 19.122 8.79838 18.4211 7.89684C17.7202 6.99529 16.8226 6.26569 15.7969 5.76366C14.7711 5.26163 13.6443 5.00044 12.5022 5ZM12.5022 19.1176C11.3389 19.1179 10.1959 18.8116 9.18871 18.2294C9.12156 18.1908 9.04555 18.1703 8.9681 18.1699C8.92063 18.1701 8.87349 18.1778 8.82838 18.1926L6.07888 19.1088C6.05296 19.1175 6.02515 19.1187 5.99857 19.1124C5.97198 19.1062 5.94767 19.0926 5.92835 19.0733C5.90904 19.054 5.89548 19.0297 5.88921 19.0031C5.88293 18.9765 5.88419 18.9487 5.89283 18.9228L6.80909 16.1765C6.82891 16.1171 6.83589 16.0542 6.82955 15.992C6.82321 15.9298 6.8037 15.8696 6.77232 15.8154C6.0423 14.5545 5.74886 13.0879 5.93753 11.6431C6.12621 10.1984 6.78644 8.85629 7.81582 7.82506C8.84519 6.79383 10.1861 6.1311 11.6306 5.9397C13.0752 5.7483 14.5425 6.03893 15.8049 6.76649C17.0674 7.49406 18.0544 8.61789 18.6129 9.96363C19.1714 11.3094 19.2701 12.8018 18.8937 14.2093C18.5173 15.6169 17.6869 16.8609 16.5313 17.7484C15.3756 18.6359 13.9594 19.1172 12.5022 19.1176Z" fill="white"/>
</svg>
