<svg width="25" height="25" viewBox="0 0 25 25" fill="none" xmlns="http://www.w3.org/2000/svg">
<circle cx="12.5" cy="12.5" r="12.5" fill="#51B8C1"/>
<path d="M18.8344 5.13029C18.7687 5.06652 18.6886 5.02413 18.6029 5.00767C18.5173 4.99122 18.4292 5.00134 18.3483 5.03693L4.53004 11.1059C4.36196 11.1797 4.21976 11.3127 4.12479 11.4849C4.02982 11.6572 3.9872 11.8593 4.00334 12.0611C4.01948 12.2628 4.0935 12.4532 4.21429 12.6037C4.33509 12.7542 4.49612 12.8567 4.67322 12.8957L8.36336 13.7091V18.315C8.36344 18.5285 8.42037 18.7371 8.52685 18.9141C8.63333 19.0911 8.78449 19.2283 8.96095 19.3081C9.13741 19.388 9.3311 19.4068 9.51717 19.3623C9.70324 19.3177 9.8732 19.2118 10.0052 19.058L11.8217 16.9437L14.6568 19.7329C14.8299 19.9048 15.053 19.9998 15.2841 20C15.385 19.9997 15.4853 19.9819 15.5814 19.9472C15.7389 19.8913 15.8805 19.79 15.9923 19.6534C16.104 19.5169 16.1819 19.3498 16.2182 19.169L18.9879 5.65599C19.0073 5.56099 19.0033 5.46183 18.9763 5.3692C18.9493 5.27656 18.9002 5.19395 18.8344 5.13029ZM4.82118 11.992C4.81857 11.9841 4.81857 11.9754 4.82118 11.9675C4.82426 11.9648 4.82772 11.9628 4.83141 11.9614L15.7211 7.17725L8.67769 12.8399L4.83141 11.9951L4.82118 11.992ZM9.41613 18.4198C9.39734 18.4417 9.37316 18.4568 9.34669 18.4632C9.32022 18.4696 9.29264 18.4671 9.26748 18.4558C9.24232 18.4446 9.22072 18.4252 9.20542 18.4001C9.19012 18.375 9.18182 18.3454 9.18157 18.315V14.3443L11.206 16.3338L9.41613 18.4198ZM15.4211 18.9616C15.4161 18.9875 15.405 19.0114 15.3889 19.0307C15.3728 19.0501 15.3524 19.0643 15.3298 19.0718C15.3067 19.0809 15.2818 19.0828 15.2578 19.0775C15.2338 19.0721 15.2116 19.0595 15.1934 19.0412L9.42977 13.3671L17.9774 6.49238L15.4211 18.9616Z" fill="white"/>
</svg>
