<svg width="25" height="25" viewBox="0 0 25 25" fill="none" xmlns="http://www.w3.org/2000/svg">
<rect width="25" height="25" rx="12.5" fill="#5C5C5C"/>
<path d="M19.4361 15.4789L15.747 13.8281C15.604 13.7662 15.4478 13.7409 15.2926 13.7545C15.1374 13.7682 14.988 13.8203 14.858 13.9062C14.8476 13.9128 14.8376 13.9201 14.8283 13.9281L12.8907 15.5797C12.8476 15.606 12.7987 15.6212 12.7483 15.6241C12.6978 15.6269 12.6475 15.6173 12.6017 15.5961C11.3329 14.9836 10.0196 13.6804 9.4071 12.4265C9.38543 12.381 9.37538 12.3309 9.37783 12.2806C9.38028 12.2303 9.39517 12.1813 9.42116 12.1382L11.0774 10.1686C11.0852 10.1593 11.0923 10.1491 11.0993 10.139C11.1849 10.0091 11.2369 9.86001 11.2505 9.70507C11.2642 9.55014 11.2391 9.39425 11.1774 9.25144L9.52351 5.56858C9.44366 5.38205 9.30546 5.22646 9.12965 5.12517C8.95384 5.02388 8.74991 4.98237 8.54849 5.00685C7.56533 5.13648 6.66298 5.61957 6.00997 6.36588C5.35696 7.1122 4.99795 8.07071 5.00001 9.06238C5.00001 15.0937 9.90633 20 15.9377 20C16.9293 20.0021 17.8878 19.6431 18.6342 18.9901C19.3805 18.3371 19.8636 17.4347 19.9932 16.4515C20.0175 16.251 19.9764 16.0481 19.876 15.8728C19.7757 15.6975 19.6214 15.5594 19.4361 15.4789ZM19.3752 16.3734C19.2649 17.206 18.8551 17.97 18.2224 18.5224C17.5898 19.0748 16.7776 19.3779 15.9377 19.375C10.2516 19.375 5.62502 14.7484 5.62502 9.06238C5.62211 8.22248 5.9252 7.41028 6.47763 6.77762C7.03006 6.14496 7.794 5.73515 8.62662 5.62483C8.63911 5.62405 8.65163 5.62405 8.66412 5.62483C8.72577 5.62536 8.78589 5.64411 8.83691 5.67872C8.88793 5.71334 8.92757 5.76227 8.95084 5.81936L10.6001 9.50223C10.6193 9.54724 10.6277 9.59614 10.6246 9.645C10.6215 9.69385 10.6069 9.74128 10.5821 9.78348L8.92663 11.7523C8.91881 11.7624 8.911 11.7718 8.90397 11.7827C8.81577 11.9176 8.76383 12.0729 8.75315 12.2337C8.74248 12.3945 8.77343 12.5554 8.84303 12.7007C9.52195 14.0906 10.922 15.4804 12.3275 16.1594C12.4738 16.2285 12.6355 16.2586 12.797 16.2467C12.9584 16.2348 13.114 16.1813 13.2486 16.0914L13.2775 16.0695L15.2173 14.4195C15.2588 14.3941 15.3058 14.379 15.3542 14.3753C15.4027 14.3717 15.4514 14.3796 15.4962 14.3984L19.1846 16.0515C19.2468 16.0774 19.299 16.1228 19.3334 16.1808C19.3677 16.2388 19.3824 16.3064 19.3752 16.3734Z" fill="white" stroke="white" stroke-width="0.2"/>
</svg>
