<svg width="15" height="15" viewBox="0 0 15 15" fill="none" xmlns="http://www.w3.org/2000/svg">
<path d="M14.8344 0.130289C14.7687 0.0665226 14.6886 0.0241258 14.6029 0.00767349C14.5173 -0.00877881 14.4292 0.00133799 14.3483 0.0369322L0.530036 6.10588C0.361963 6.17968 0.219763 6.31269 0.124791 6.48493C0.029819 6.65717 -0.0127975 6.85934 0.00334161 7.06108C0.0194807 7.26282 0.093504 7.45324 0.214295 7.60374C0.335086 7.75424 0.496123 7.85669 0.673223 7.89572L4.36336 8.70915V13.315C4.36344 13.5285 4.42037 13.7371 4.52685 13.9141C4.63333 14.0911 4.78449 14.2283 4.96095 14.3081C5.13741 14.388 5.3311 14.4068 5.51717 14.3623C5.70324 14.3177 5.8732 14.2118 6.00524 14.058L7.82167 11.9437L10.6568 14.7329C10.8299 14.9048 11.053 14.9998 11.2841 15C11.385 14.9997 11.4853 14.9819 11.5814 14.9472C11.7389 14.8913 11.8805 14.79 11.9923 14.6534C12.104 14.5169 12.1819 14.3498 12.2182 14.169L14.9879 0.655993C15.0073 0.560995 15.0033 0.461833 14.9763 0.369195C14.9493 0.276557 14.9002 0.193955 14.8344 0.130289ZM0.821183 6.992C0.818572 6.9841 0.818572 6.97541 0.821183 6.96751C0.824263 6.96484 0.827721 6.96277 0.831411 6.96139L11.7211 2.17725L4.67769 7.83986L0.831411 6.99506L0.821183 6.992ZM5.41613 13.4198C5.39734 13.4417 5.37316 13.4568 5.34669 13.4632C5.32022 13.4696 5.29264 13.4671 5.26748 13.4558C5.24232 13.4446 5.22072 13.4252 5.20542 13.4001C5.19012 13.375 5.18182 13.3454 5.18157 13.315V9.34428L7.20597 11.3338L5.41613 13.4198ZM11.4211 13.9616C11.4161 13.9875 11.405 14.0114 11.3889 14.0307C11.3728 14.0501 11.3524 14.0643 11.3298 14.0718C11.3067 14.0809 11.2818 14.0828 11.2578 14.0775C11.2338 14.0721 11.2116 14.0595 11.1934 14.0412L5.42977 8.36709L13.9774 1.49238L11.4211 13.9616Z" fill="#5C5C5C"/>
</svg>
