<svg width="15" height="15" viewBox="0 0 15 15" fill="none" xmlns="http://www.w3.org/2000/svg">
<path d="M11.8173 8.86985L9.46418 7.69338C9.39467 7.65882 9.31728 7.6432 9.23981 7.64811C9.16235 7.65302 9.08755 7.67827 9.02296 7.72132L7.86992 8.48971C7.28619 8.19091 6.81127 7.71603 6.51244 7.13235L7.28163 5.98015C7.32469 5.91557 7.34994 5.84077 7.35485 5.76331C7.35976 5.68585 7.34414 5.60847 7.30957 5.53897L6.133 3.18603C6.09642 3.11242 6.03999 3.05048 5.97009 3.00722C5.90019 2.96396 5.81959 2.94108 5.73738 2.94118C4.99626 2.94118 4.28551 3.23556 3.76146 3.75956C3.23742 4.28355 2.94301 4.99425 2.94301 5.73529C2.94496 7.4118 3.61187 9.01909 4.79744 10.2046C5.98302 11.39 7.59044 12.0569 9.2671 12.0588C10.0082 12.0588 10.719 11.7644 11.243 11.2404C11.7671 10.7164 12.0615 10.0058 12.0615 9.26471C12.0615 9.18271 12.0387 9.10232 11.9955 9.03257C11.9524 8.96283 11.8907 8.90648 11.8173 8.86985ZM9.2671 11.1765C7.82442 11.1747 6.44133 10.6009 5.4212 9.58085C4.40107 8.56081 3.82719 7.17785 3.82544 5.73529C3.82548 5.27389 3.99241 4.82808 4.29542 4.48009C4.59842 4.13211 5.01707 3.90544 5.47412 3.84191L6.40508 5.70368L5.64104 6.84927C5.6009 6.90969 5.57627 6.97907 5.56935 7.05128C5.56242 7.12349 5.57341 7.19629 5.60133 7.26324C6.00705 8.22776 6.77441 8.99505 7.73902 9.40074C7.80598 9.42866 7.87878 9.43965 7.951 9.43272C8.02321 9.42579 8.09261 9.40117 8.15303 9.36103L9.29872 8.59706L11.1606 9.52794C11.0971 9.98495 10.8704 10.4036 10.5224 10.7065C10.1744 11.0095 9.72854 11.1764 9.2671 11.1765ZM7.50224 1.65306e-07C6.20197 -0.000272773 4.92396 0.337447 3.79359 0.980026C2.66323 1.62261 1.71934 2.54797 1.05452 3.66534C0.389711 4.7827 0.0268114 6.05369 0.00142951 7.3536C-0.0239524 8.65351 0.289055 9.93769 0.909743 11.0801L0.0552561 13.6441C-0.00523704 13.8255 -0.014016 14.0201 0.0299033 14.2062C0.0738225 14.3923 0.168704 14.5625 0.303914 14.6977C0.439124 14.8329 0.609318 14.9278 0.795422 14.9717C0.981525 15.0156 1.17618 15.0068 1.35758 14.9463L3.92177 14.0919C4.92553 14.6366 6.04041 14.9449 7.18141 14.9933C8.32241 15.0417 9.4594 14.8289 10.5057 14.3712C11.552 13.9135 12.4799 13.223 13.2188 12.3522C13.9576 11.4815 14.4878 10.4535 14.7691 9.34676C15.0503 8.23999 15.075 7.08363 14.8414 5.96585C14.6078 4.84807 14.122 3.79838 13.4211 2.89684C12.7202 1.99529 11.8226 1.26569 10.7969 0.76366C9.77111 0.261634 8.64427 0.000441809 7.50224 1.65306e-07ZM7.50224 14.1176C6.33885 14.1179 5.19594 13.8116 4.18871 13.2294C4.12156 13.1908 4.04555 13.1703 3.9681 13.1699C3.92063 13.1701 3.87349 13.1778 3.82838 13.1926L1.07888 14.1088C1.05296 14.1175 1.02515 14.1187 0.998568 14.1124C0.971982 14.1062 0.947669 14.0926 0.928353 14.0733C0.909037 14.054 0.895483 14.0297 0.889208 14.0031C0.882934 13.9765 0.884188 13.9487 0.89283 13.9228L1.80909 11.1765C1.82891 11.1171 1.83589 11.0542 1.82955 10.992C1.82321 10.9298 1.8037 10.8696 1.77232 10.8154C1.0423 9.55448 0.748859 8.08787 0.937534 6.64313C1.12621 5.19839 1.78644 3.85629 2.81582 2.82506C3.84519 1.79383 5.18614 1.1311 6.63065 0.939701C8.07515 0.748302 9.54245 1.03893 10.8049 1.76649C12.0674 2.49406 13.0544 3.61789 13.6129 4.96363C14.1714 6.30937 14.2701 7.80178 13.8937 9.20934C13.5173 10.6169 12.6869 11.8609 11.5313 12.7484C10.3756 13.6359 8.95937 14.1172 7.50224 14.1176Z" fill="#5C5C5C"/>
</svg>
