<svg width="49" height="49" viewBox="0 0 49 49" fill="none" xmlns="http://www.w3.org/2000/svg">
<g clip-path="url(#clip0_47_30)">
<path fill-rule="evenodd" clip-rule="evenodd" d="M24.6776 0.486592C25.421 0.486592 26.0237 1.08929 26.0237 1.83275V47.5227C26.0237 48.2662 25.421 48.8689 24.6776 48.8689C23.9341 48.8689 23.3314 48.2662 23.3314 47.5227V1.83275C23.3314 1.08929 23.9341 0.486593 24.6776 0.486592Z" fill="#51B8C1"/>
<path fill-rule="evenodd" clip-rule="evenodd" d="M0.486428 24.6777C0.486428 23.9343 1.08912 23.3316 1.83258 23.3316L47.5226 23.3316C48.266 23.3316 48.8687 23.9343 48.8687 24.6777C48.8687 25.4212 48.266 26.0239 47.5226 26.0239L1.83258 26.0239C1.08912 26.0239 0.486428 25.4212 0.486428 24.6777Z" fill="#51B8C1"/>
</g>
<defs>
<clipPath id="clip0_47_30">
<rect width="49" height="49" fill="white"/>
</clipPath>
</defs>
</svg>
