<svg width="82" height="82" viewBox="0 0 82 82" fill="none" xmlns="http://www.w3.org/2000/svg">
<path d="M76.375 63.0452L75.3773 59.4173C79.7942 51.1727 81.1011 41.6154 79.0596 32.4877C77.0182 23.36 71.7644 15.27 64.2561 9.69264C56.7478 4.11524 47.4851 1.42196 38.1568 2.10383C28.8285 2.7857 20.056 6.7973 13.4385 13.4072C6.82108 20.0172 2.79953 28.7852 2.10708 38.1127C1.41463 47.4402 4.0974 56.7059 9.66627 64.2205C15.2351 71.7351 23.3192 76.9981 32.4445 79.05C41.5699 81.1018 51.1287 79.8057 59.3783 75.3982L63.0062 76.3958L76.0666 79.8968C76.8309 80.0804 77.6365 79.9597 78.3135 79.5603C78.9904 79.1609 79.4856 78.514 79.6945 77.7563C79.8393 77.2402 79.8393 76.6943 79.6945 76.1782L76.375 63.0452ZM58.2355 36.9424C59.0248 36.9424 59.7963 37.1765 60.4526 37.615C61.1088 38.0535 61.6203 38.6767 61.9224 39.4059C62.2244 40.1351 62.3035 40.9375 62.1495 41.7117C61.9955 42.4858 61.6154 43.1968 61.0573 43.755C60.4992 44.3131 59.7881 44.6931 59.014 44.8471C58.2399 45.0011 57.4375 44.9221 56.7083 44.62C55.9791 44.318 55.3558 43.8065 54.9173 43.1502C54.4788 42.494 54.2448 41.7224 54.2448 40.9331C54.259 39.8729 54.689 38.8606 55.4422 38.1143C56.1953 37.3679 57.2114 36.9471 58.2717 36.9424H58.2355ZM23.6978 44.9238C22.9086 44.9238 22.137 44.6898 21.4807 44.2513C20.8245 43.8127 20.313 43.1895 20.0109 42.4603C19.7089 41.7311 19.6299 40.9287 19.7838 40.1546C19.9378 39.3804 20.3179 38.6694 20.876 38.1113C21.4341 37.5532 22.1452 37.1731 22.9193 37.0191C23.6934 36.8651 24.4958 36.9441 25.225 37.2462C25.9542 37.5482 26.5775 38.0597 27.016 38.716C27.4545 39.3723 27.6885 40.1438 27.6885 40.9331C27.6745 41.9871 27.2495 42.994 26.5041 43.7394C25.7587 44.4847 24.7519 44.9097 23.6978 44.9238ZM40.9848 44.9238C40.1955 44.9238 39.424 44.6898 38.7677 44.2513C38.1114 43.8127 37.5999 43.1895 37.2979 42.4603C36.9958 41.7311 36.9168 40.9287 37.0708 40.1546C37.2248 39.3804 37.6048 38.6694 38.163 38.1113C38.7211 37.5532 39.4321 37.1731 40.2063 37.0191C40.9804 36.8651 41.7828 36.9441 42.512 37.2462C43.2412 37.5482 43.8644 38.0597 44.3029 38.716C44.7414 39.3723 44.9755 40.1438 44.9755 40.9331C44.9614 41.9871 44.5364 42.994 43.7911 43.7394C43.0457 44.4847 42.0388 44.9097 40.9848 44.9238Z" stroke="#5C5C5C" stroke-width="3" stroke-linecap="round" stroke-linejoin="round"/>
</svg>
