<svg xmlns="http://www.w3.org/2000/svg" width="61" height="66" viewBox="0 0 61 66" fill="none">
  <path d="M60 50C58.0867 46.699 56 36.9267 56 25C56 18.3463 52.7263 11.7049 48 7C43.2737 2.29511 37.684 0 31 0C24.3161 0 17.7263 2.29511 13 7C8.27374 11.7049 5.00001 18.3463 5.00001 25C5.00001 36.9267 2.91336 45.7155 1.00001 49C0.647072 49.6018 0.00258496 50.3031 7.5941e-06 51C-0.00256977 51.6969 0.651534 52.3956 1.00001 53C1.34848 53.6044 1.39425 54.6507 2.00001 55C2.60576 55.3493 3.29997 54.9998 4.00001 55H19C19.331 57.9009 20.8123 61.0556 23 63C25.1877 64.9444 28.0672 66 31 66C33.9328 66 35.8123 64.9444 38 63C40.1877 61.0556 41.669 57.9009 42 55H57C57.6973 54.9976 58.397 55.3487 59 55C59.603 54.6513 59.6524 53.6018 60 53C60.3476 52.3982 61.0006 51.6942 61 51C60.9994 50.3058 60.3487 50.6012 60 50ZM31 63C28.7675 62.9998 25.6876 62.455 24 61C22.3124 59.545 21.3189 57.1996 21 55H40C39.6811 57.1996 38.6876 59.545 37 61C35.3124 62.455 33.2325 62.9998 31 63ZM58 52C57.8866 52.2016 58.2007 52.8839 58 53C57.7994 53.1161 57.2321 53.0017 57 53H4.00001C3.76791 53.0017 3.20066 53.1161 3.00001 53C2.79936 52.8839 3.11338 52.2016 3.00001 52C2.88359 51.7993 3.00001 51.2318 3.00001 51C2.88359 51.2007 3.00001 50.7682 3.00001 51C5.46714 46.7648 8.00001 36.6593 8.00001 25C8.00001 19.0467 10.7712 13.2096 15 9C19.2288 4.79036 25.0196 3 31 3C36.9804 3 41.7712 4.79036 46 9C50.2288 13.2096 53 19.0467 53 25C53 36.656 55.5329 46.7648 58 51C57.9994 50.7682 58.1169 51.2004 58 51C58.0006 51.2318 58.1159 51.799 58 52Z" fill="#5C5C5C"/>
</svg>